<svg xmlns="http://www.w3.org/2000/svg"><symbol id="logo"><svg xmlns="http://www.w3.org/2000/svg" width="36" height="36" viewBox="0 0 36 36" fill="none"><g clip-path="url(#clip0_1907_34)"><path d="m17.999 5.535 17.6-5.186L30.465 18 35.6 35.601l-17.601-5.135L.348 35.6l5.185-17.6L.348.348z" fill="#000"/></g><defs><clipPath id="clip0_1907_34"><rect width="36" height="36" fill="#fff"/></clipPath></defs></svg></symbol><symbol id="amazon"><svg xmlns="http://www.w3.org/2000/svg" width="125" height="48" viewBox="0 0 125 48" fill="none"><g style="mix-blend-mode:luminosity"><path fill-rule="evenodd" clip-rule="evenodd" d="M76.65 37.807C69.47 42.497 59.065 45 50.105 45 37.54 45 26.23 40.88 17.673 34.032c-.673-.539-.07-1.273.736-.854 9.235 4.762 20.653 7.627 32.448 7.627 7.954 0 16.704-1.459 24.75-4.485 1.216-.458 2.232.705 1.044 1.487" fill="#f90"/><path fill-rule="evenodd" clip-rule="evenodd" d="M79.636 34.78c-.914-1.04-6.067-.49-8.38-.248-.704.076-.812-.467-.177-.858 4.104-2.56 10.837-1.82 11.623-.963.785.863-.205 6.845-4.061 9.7-.592.44-1.156.206-.893-.376.866-1.916 2.807-6.211 1.888-7.255" fill="#f90"/><path fill-rule="evenodd" clip-rule="evenodd" d="M71.418 15.604v-2.489c0-.376.323-.629.71-.629h12.57c.403 0 .725.258.725.63v2.13c-.005.358-.344.825-.946 1.564l-6.513 8.241c2.42-.052 4.975.267 7.169 1.364.495.247.63.61.667.967v2.655c0 .363-.452.787-.925.568-3.867-1.798-9.004-1.993-13.28.019-.435.21-.892-.21-.892-.572V27.53c0-.405.005-1.096.462-1.711l7.546-9.59h-6.567c-.403 0-.726-.254-.726-.625" fill="#000"/><path fill-rule="evenodd" clip-rule="evenodd" d="M25.568 31.129h-3.824c-.365-.024-.656-.267-.683-.577V13.158c0-.348.329-.624.737-.624h3.566c.371.014.667.267.694.581v2.274h.07c.93-2.197 2.678-3.222 5.034-3.222 2.393 0 3.888 1.025 4.964 3.222.925-2.197 3.028-3.222 5.281-3.222 1.603 0 3.357.586 4.427 1.902 1.21 1.463.962 3.59.962 5.453L46.792 30.5c0 .348-.328.629-.737.629h-3.818c-.382-.024-.689-.296-.689-.63v-9.218c0-.734.076-2.565-.107-3.26-.285-1.168-1.14-1.497-2.248-1.497-.925 0-1.894.548-2.286 1.425s-.355 2.345-.355 3.332V30.5c0 .348-.328.629-.737.629h-3.819c-.387-.024-.688-.296-.688-.63l-.005-9.218c0-1.94.36-4.796-2.356-4.796-2.748 0-2.64 2.784-2.64 4.796V30.5c0 .348-.329.629-.738.629" fill="#000"/><path fill-rule="evenodd" clip-rule="evenodd" d="M96.244 12.167c5.674 0 8.745 4.318 8.745 9.81 0 5.305-3.393 9.514-8.745 9.514-5.572 0-8.605-4.318-8.605-9.7 0-5.415 3.071-9.624 8.605-9.624m.032 3.551c-2.818 0-2.995 3.404-2.995 5.525 0 2.126-.038 6.664 2.963 6.664 2.964 0 3.103-3.661 3.103-5.892 0-1.468-.07-3.222-.57-4.614-.43-1.211-1.285-1.683-2.5-1.683" fill="#000"/><path fill-rule="evenodd" clip-rule="evenodd" d="M112.347 31.129h-3.808c-.382-.024-.688-.296-.688-.63l-.006-17.398c.033-.32.35-.567.737-.567h3.544c.334.014.608.214.683.486v2.66h.07c1.071-2.379 2.571-3.513 5.212-3.513 1.716 0 3.388.548 4.464 2.05 1 1.391 1 3.732 1 5.414v10.95c-.043.305-.36.548-.737.548h-3.834c-.35-.024-.64-.253-.678-.548v-9.448c0-1.902.247-4.686-2.393-4.686-.931 0-1.786.553-2.211 1.392-.538 1.063-.607 2.122-.607 3.294V30.5c-.006.348-.339.629-.748.629" fill="#000"/><path fill-rule="evenodd" clip-rule="evenodd" d="M61.399 22.82c0 1.32.037 2.422-.716 3.595-.608.953-1.576 1.54-2.646 1.54-1.468 0-2.329-.992-2.329-2.456 0-2.888 2.92-3.413 5.69-3.413zm3.856 8.261c-.253.2-.619.215-.904.081-1.27-.934-1.5-1.368-2.194-2.26-2.098 1.898-3.587 2.465-6.303 2.465-3.222 0-5.723-1.759-5.723-5.281 0-2.75 1.678-4.624 4.077-5.54 2.076-.81 4.975-.953 7.19-1.177v-.438c0-.806.07-1.76-.467-2.455-.463-.624-1.356-.882-2.146-.882-1.458 0-2.754.663-3.071 2.036-.065.305-.318.605-.667.62l-3.706-.354c-.312-.062-.661-.286-.57-.71.85-3.985 4.916-5.186 8.551-5.186 1.861 0 4.292.438 5.76 1.687 1.862 1.54 1.684 3.595 1.684 5.83V24.8c0 1.587.742 2.283 1.441 3.14.243.306.296.673-.016.902-.78.577-2.167 1.65-2.93 2.25z" fill="#000"/><path fill-rule="evenodd" clip-rule="evenodd" d="M11.268 22.82c0 1.32.037 2.422-.716 3.595-.608.953-1.57 1.54-2.646 1.54-1.468 0-2.323-.992-2.323-2.456 0-2.888 2.92-3.413 5.685-3.413zm3.856 8.261c-.253.2-.619.215-.904.081-1.27-.934-1.495-1.368-2.194-2.26-2.098 1.898-3.582 2.465-6.304 2.465C2.506 31.367 0 29.608 0 26.086c0-2.75 1.683-4.624 4.077-5.54 2.076-.81 4.975-.953 7.19-1.177v-.438c0-.806.07-1.76-.462-2.455-.468-.624-1.36-.882-2.146-.882-1.457 0-2.759.663-3.076 2.036-.065.305-.318.605-.662.62l-3.71-.354c-.313-.062-.657-.286-.571-.71C1.495 13.201 5.556 12 9.191 12c1.861 0 4.292.438 5.76 1.687 1.861 1.54 1.684 3.595 1.684 5.83V24.8c0 1.587.742 2.283 1.441 3.14.248.306.302.673-.01.902-.78.577-2.168 1.65-2.931 2.25z" fill="#000"/></g></svg></symbol><symbol id="dribble"><svg xmlns="http://www.w3.org/2000/svg" width="127" height="48" viewBox="0 0 127 48" fill="none"><g style="mix-blend-mode:luminosity" clip-path="url(#clip0_333_1359)"><path fill-rule="evenodd" clip-rule="evenodd" d="M125.573 30.563c-5.256 7.898-13.579 5.606-16.079 3.812-1.064.64-2.929 2.042-5.417 1.88-5.298-.345-7.195-7.054-7.195-7.054.038.026-1.578.494-2.451.486-.011 1.967-1.93 6.668-7.11 6.607-5.812-.067-6.993-7.74-6.993-7.74s-.579.71-2.778 1.42c.11-1.512.03 6.09-6.936 6.202-5.507.089-6.993-7.741-6.993-7.741s-.956.88-2.807 1.184c.117-1.536-.074 6.583-7.04 6.557-4.709-.017-6.317-4.823-6.192-5.49.16-.85-1.591 5.61-6.165 5.509-1.887-.05-3.294-1.26-4.177-2.875-1.181 1.199-2.897 2.875-4.822 2.875-3.456 0-4.979-2.561-4.72-9.877.021-.868-.05-1.209-1.023-1.339-.584-.086-1.182-.25-1.815-.336-.203.6-1.924 11.357-7.84 11.561-1.985.069-3.07-1.456-3.962-2.587-1.367 1.602-3.17 2.638-5.74 2.638C2.966 36.255 0 33.136 0 29.289s2.966-6.965 7.318-6.965c.77 0 .986.098 1.689.28C7.56 10.937 10.976 9.113 13.963 9.113c2.867 0 7.766 5.899.873 20.862 1.53 4.463 4.83 4.21 6.415-4.977.323-1.867-.54-4.388.802-4.74 2.453-.642 2.714 1.287 3.864 1.608 1.216.34 1.926.306 3.094.523 1.995.345 2.774 1.295 2.53 3.41-.291 2.678-.802 6.574.755 7.05 1.123.344 3.173-1.72 3.533-2.849s.434-1.515.466-2.344c.049-1.77.11-3.067.45-4.406.147-.518.313-.861.974-.885.544-.012 1.539-.157 1.977.145.584.389.51.783.444 1.822-.68 14.803 4.547 7.413 6.105 1.496-.555-6.691-.174-16.592 4.557-16.759 2.46-.086 3.548 1.661 3.668 2.965.338 3.683-1.557 9.783-4.05 13.886-1.425 8.37 6.23 10.026 7.453 3.344-2.002-.844-4.167-4.26-2.405-5.924.988-.934 5.101.408 5.169 3.335 2.018-.479 2.287-1.488 2.315-1.321-.554-6.691-.04-16.118 4.691-16.284 2.46-.087 3.548 1.66 3.667 2.964.339 3.683-1.557 9.783-4.05 13.886-1.424 8.37 6.23 10.026 7.454 3.344-1.483-.253-4.613-3.886-2.807-5.924.965-1.09 5.064 1.175 5.523 3.432 1.938-.486 2.202-1.464 2.23-1.3-.555-6.69-.041-16.118 4.69-16.284 2.46-.086 3.548 1.66 3.668 2.965.338 3.682-1.558 9.783-4.05 13.885-1.425 8.372 6.23 10.026 7.453 3.345-2.037-.301-4.933-4.137-2.603-6.1.932-.784 4.49 1.252 5.323 3.574 1.157-.04 1.877-.393 2.032-.43-1.848-7.854-.473-17.279 4.617-17.357 2.751-.043 5.44 1.318 4.26 8.79-1.127 7.13-5.177 10.123-5.168 10.169.236.854 2.314 8.002 7.548 4.23-.271-.543-.543-1.099-.694-1.772-.868-3.92.836-8.347 5.467-9.062 2.654-.41 5.153.735 5.548 3.316.65 4.224-3.653 7.282-5.289 7.946-.733-.37 6.644 3.824 11.021-4.579.254-.48.56-.44.957-.192.28.175 1.875 1.514 1.133 2.647M10.484 28.252c-.223-.59-.68-1.891-.841-2.454C8.753 25.11 8.117 25 6.974 25c-2.539 0-4.034 2.08-4.034 4.325 0 2.243 1.629 4.325 4.168 4.325 2.2 0 3.876-1.326 4.387-3.204-.358-.732-.713-1.404-1.01-2.194m3.416-16.05c-1.784 0-2.39 3.772-2.272 6.99.104 2.846 1.001 5.35 1.467 6.473.118.14.096.05.201.199C16.394 19.847 15.11 12.2 13.9 12.2m37.157.118c-2.306-.235-2.291 8.28-2.005 10.19 1.198-1.698 3.278-9.733 2.005-10.19m16.84 0c-2.306-.235-2.29 8.28-2.004 10.19 1.197-1.698 3.278-9.733 2.004-10.19m16.708.118c-2.307-.234-2.292 8.28-2.005 10.19 1.197-1.698 3.278-9.732 2.005-10.19m16.439-.617c-3.593.64-2.756 11.258-2.21 13.12 4.232-5.152 4.319-13.313 2.21-13.12m13.467 13.27c-.183-.678-1.097-1.04-1.727-.95-1.804.218-3.554 2.21-2.877 5.241.151.676.528 1.297.522 1.276 4.038-2.4 4.381-4.292 4.082-5.568m-76.085-5.07a2.85 2.85 0 0 1-1.448-.388 2.4 2.4 0 0 1-.96-1.037 2.07 2.07 0 0 1-.15-1.335c.101-.449.35-.86.714-1.183.365-.324.83-.544 1.335-.633a2.9 2.9 0 0 1 1.506.131c.477.175.884.472 1.17.852.287.38.44.826.44 1.283 0 .304-.068.604-.199.885a2.3 2.3 0 0 1-.565.749 2.7 2.7 0 0 1-.845.5 2.9 2.9 0 0 1-.998.177" fill="#0d0c22"/></g><defs><clipPath id="clip0_333_1359"><rect width="126.369" height="48" fill="#fff"/></clipPath></defs></svg></symbol><symbol id="hubspot"><svg xmlns="http://www.w3.org/2000/svg" width="129" height="48" viewBox="0 0 129 48" fill="none"><g style="mix-blend-mode:luminosity" clip-path="url(#clip0_333_1360)"><path d="M13.888 13.106v9.088H4.47v-9.088H0V34.8h4.47v-8.793h9.418V34.8h4.47V13.106z" fill="#33475b"/><path d="M32.667 27.787c0 .87-.39 1.703-1.084 2.318-.693.615-1.634.96-2.615.96-.98 0-1.922-.345-2.615-.96s-1.084-1.449-1.084-2.318v-9.292h-4.24v9.292c0 1.864.835 3.652 2.323 4.97 1.487 1.32 3.505 2.06 5.608 2.06 2.104 0 4.121-.74 5.609-2.06 1.487-1.318 2.323-3.106 2.323-4.97v-9.292h-4.225z" fill="#33475b"/><path d="M64.088 19.453c0-1.905 1.422-2.508 2.98-2.508 1.254 0 2.913.846 3.997 1.873l2.777-2.9c-1.386-1.662-4.199-2.811-6.501-2.811-4.6 0-7.927 2.387-7.927 6.346 0 7.344 10.128 5.015 10.128 9.125 0 1.267-1.388 2.387-2.979 2.387-2.508 0-3.32-1.087-4.473-2.236l-3.082 2.84c1.972 2.146 4.403 3.235 7.317 3.235 4.37 0 7.885-2.417 7.885-6.195 0-8.154-10.128-5.62-10.128-9.156" fill="#33475b"/><path d="M126.749 31.334c-2.506 0-3.217-.96-3.217-2.433v-6.513h3.894v-3.3h-3.894v-4.355l-4.3 1.71v13.268c0 3.394 2.641 5.104 6.264 5.104a10 10 0 0 0 1.696-.12l1.049-3.423a26 26 0 0 1-1.492.058" fill="#33475b"/><path d="M48.81 18.605c-2.101 0-3.567.54-4.984 1.772v-7.14H39.58V26.47c0 4.955 4.041 8.348 8.582 8.348 5.038 0 9.47-3.453 9.47-8.105 0-4.593-4.08-8.107-8.821-8.107zm-.027 12.427a5.27 5.27 0 0 1-2.677-.72c-.793-.47-1.41-1.136-1.775-1.917a3.82 3.82 0 0 1-.274-2.468 4.15 4.15 0 0 1 1.319-2.186 5.04 5.04 0 0 1 2.467-1.17 5.4 5.4 0 0 1 2.784.244 4.74 4.74 0 0 1 2.163 1.573c.53.702.812 1.528.812 2.373 0 1.133-.507 2.219-1.411 3.02-.904.8-2.13 1.25-3.408 1.25" fill="#33475b"/><path d="M94.928 26.515c0-4.66-4.423-8.105-9.47-8.105-4.54 0-8.582 3.393-8.582 8.348V40h4.247v-7.15c1.415 1.23 2.883 1.773 4.981 1.773 4.743 0 8.822-3.512 8.822-8.108zm-4.022-.046c0 .844-.282 1.67-.812 2.373a4.74 4.74 0 0 1-2.163 1.573c-.88.323-1.85.408-2.784.243a5.04 5.04 0 0 1-2.468-1.17 4.15 4.15 0 0 1-1.319-2.186 3.82 3.82 0 0 1 .275-2.468c.364-.78.982-1.447 1.775-1.917a5.27 5.27 0 0 1 2.677-.72c1.278 0 2.504.45 3.408 1.252.903.8 1.411 1.887 1.411 3.02" fill="#33475b"/><path d="M108.607 18.35v-3.743a3.16 3.16 0 0 0 1.362-1.058c.332-.46.51-.994.513-1.54v-.087c-.003-.763-.346-1.494-.954-2.034-.609-.54-1.434-.843-2.295-.845h-.098c-.861.002-1.686.306-2.295.845-.608.54-.951 1.27-.954 2.034v.087c.003.546.181 1.08.513 1.54s.804.827 1.362 1.058v3.743a9.8 9.8 0 0 0-4.381 1.708l-11.596-7.997q.124-.396.131-.81c.001-.641-.213-1.27-.615-1.804a3.6 3.6 0 0 0-1.643-1.198 4.1 4.1 0 0 0-2.117-.187 3.83 3.83 0 0 0-1.878.887 3.15 3.15 0 0 0-1.005 1.662c-.142.63-.07 1.283.206 1.876a3.37 3.37 0 0 0 1.348 1.46 4 4 0 0 0 3.847.112l11.401 7.867c-1.027 1.373-1.562 2.989-1.537 4.636s.61 3.25 1.68 4.597l-3.47 3.075a3.3 3.3 0 0 0-.861-.124c-.596 0-1.178.157-1.673.45s-.882.71-1.11 1.198a2.4 2.4 0 0 0-.171 1.542c.116.518.403.994.824 1.367s.958.628 1.542.73c.585.104 1.19.05 1.74-.151a2.96 2.96 0 0 0 1.352-.983 2.46 2.46 0 0 0 .508-1.484 2.4 2.4 0 0 0-.14-.763l3.432-3.042a9.9 9.9 0 0 0 3.805 1.525c1.382.245 2.81.207 4.173-.112a9.7 9.7 0 0 0 3.693-1.726 8.3 8.3 0 0 0 2.461-2.99 7.4 7.4 0 0 0 .728-3.643 7.5 7.5 0 0 0-1.153-3.557 8.65 8.65 0 0 0-2.799-2.746 10 10 0 0 0-3.876-1.375m-1.422 12.312a5.2 5.2 0 0 1-2.638-.71c-.781-.462-1.39-1.12-1.749-1.888a3.77 3.77 0 0 1-.271-2.432 4.1 4.1 0 0 1 1.3-2.155 4.96 4.96 0 0 1 2.432-1.152 5.3 5.3 0 0 1 2.743.24c.868.318 1.61.857 2.132 1.55.522.692.8 1.506.8 2.338 0 1.116-.5 2.187-1.391 2.976-.89.79-2.098 1.233-3.358 1.233" fill="#ff7a59"/></g><defs><clipPath id="clip0_333_1360"><rect width="128.626" height="48" fill="#fff"/></clipPath></defs></svg></symbol><symbol id="notion"><svg xmlns="http://www.w3.org/2000/svg" width="146" height="48" viewBox="0 0 146 48" fill="none"><g style="mix-blend-mode:luminosity" clip-path="url(#clip0_333_1361)"><path d="M50.7 34.775V20.22h.293l11.954 14.555h3.762V13.4h-4.18v14.518h-.292L50.283 13.401H46.52v21.374zm27.838.33c5.517 0 8.902-3.153 8.902-8.432 0-5.243-3.385-8.433-8.902-8.433-5.476 0-8.903 3.19-8.903 8.433.042 5.279 3.385 8.432 8.903 8.432m0-3.08c-2.926 0-4.598-1.943-4.598-5.352 0-3.373 1.672-5.353 4.598-5.353 2.925 0 4.597 1.98 4.597 5.352 0 3.41-1.672 5.353-4.597 5.353m12.706-17.414v4.069h-2.926v2.933h2.926v8.836c0 3.153 1.672 4.4 5.935 4.4.794 0 1.588-.074 2.215-.184v-2.86c-.501.037-.836.074-1.42.074-1.756 0-2.55-.697-2.55-2.31v-7.956h3.97V18.68h-3.97v-4.07zm10.658 20.164h4.18V18.57h-4.18zm2.09-18.881c1.379 0 2.508-.99 2.508-2.2 0-1.247-1.129-2.237-2.508-2.237s-2.508.99-2.508 2.237c0 1.21 1.129 2.2 2.508 2.2m13.542 19.21c5.517 0 8.903-3.152 8.903-8.431 0-5.243-3.386-8.433-8.903-8.433-5.475 0-8.903 3.19-8.903 8.433 0 5.279 3.344 8.432 8.903 8.432m0-3.079c-2.926 0-4.597-1.943-4.597-5.352 0-3.373 1.671-5.353 4.597-5.353 2.884 0 4.598 1.98 4.598 5.352-.042 3.41-1.714 5.353-4.598 5.353m11.369 2.75h4.18v-9.422c0-2.383 1.588-3.887 4.054-3.887 2.55 0 3.72 1.247 3.72 3.703v9.606h4.18V24.289c0-3.886-2.257-6.049-6.353-6.049-2.759 0-4.598 1.1-5.476 2.933h-.292V18.57h-4.055c.042 0 .042 16.205.042 16.205" fill="#000"/><path fill-rule="evenodd" clip-rule="evenodd" d="M6.445 12.033c1.216.87 1.656.8 3.934.663l21.457-1.144c.466 0 .078-.412-.077-.458l-3.572-2.266c-.673-.458-1.605-1.007-3.34-.87L4.09 9.308c-.751.07-.906.413-.596.665zm1.294 4.417v19.96c0 1.076.595 1.465 1.967 1.396l23.58-1.213c1.371-.069 1.527-.801 1.527-1.671V15.1c0-.87-.388-1.35-1.217-1.282L8.956 15.1c-.906.068-1.217.48-1.217 1.35m23.269 1.076c.155.595 0 1.213-.673 1.282l-1.139.206v14.74c-.983.459-1.89.733-2.666.733-1.216 0-1.527-.343-2.433-1.35L16.67 22.814v9.98l2.355.457s0 1.213-1.89 1.213l-5.228.275c-.155-.275 0-.938.518-1.076l1.372-.343V20.136l-1.89-.138c-.155-.595.233-1.465 1.294-1.533l5.617-.344 7.74 10.438v-9.225l-1.968-.206c-.155-.732.466-1.282 1.217-1.35zM2.355 7.478 23.968 6.08c2.64-.206 3.339-.068 4.995 1.007l6.885 4.28c1.139.733 1.527.94 1.527 1.74v23.508c0 1.465-.595 2.335-2.718 2.472l-25.08 1.35c-1.605.07-2.356-.137-3.184-1.075l-5.099-5.837C.388 32.45 0 31.649 0 30.71V9.812C0 8.6.621 7.615 2.355 7.478" fill="#000"/></g><defs><clipPath id="clip0_333_1361"><rect width="145.551" height="48" fill="#fff"/></clipPath></defs></svg></symbol><symbol id="netflix"><svg xmlns="http://www.w3.org/2000/svg" width="126" height="48" viewBox="0 0 126 48" fill="none"><g style="mix-blend-mode:luminosity" clip-path="url(#clip0_333_1362)"><path d="M17.222 38.066c-1.884.293-3.801.381-5.785.616L5.388 22.979v16.377c-1.884.175-3.603.41-5.388.644V10h5.025L11.9 27.022V10h5.322zm10.412-17.08c2.05 0 5.19-.088 7.074-.088v4.688c-2.347 0-5.09 0-7.073.088v6.973c3.107-.176 6.214-.41 9.354-.499v4.512l-14.643 1.025V10h14.643v4.688h-9.354zm29.023-6.298H51.17V36.25c-1.785 0-3.57 0-5.289.059V14.688h-5.487V10h16.264zm8.595 5.976h7.239v4.688h-7.24v10.634h-5.19V10h14.777v4.688h-9.586zm18.18 11.22c3.008.06 6.05.265 8.992.41v4.63c-4.727-.264-9.454-.527-14.28-.615V10h5.288zm13.454 5.362c1.686.088 3.471.176 5.19.351V10h-5.19zM125.248 10l-6.711 14.268L125.248 40c-1.984-.234-3.967-.557-5.95-.85l-3.802-8.671-3.867 7.968c-1.917-.293-3.769-.38-5.685-.615l6.809-13.74L106.604 10h5.686l3.471 7.88 3.702-7.88z" fill="#d81f26"/></g><defs><clipPath id="clip0_333_1362"><rect width="125.241" height="48" fill="#fff"/></clipPath></defs></svg></symbol><symbol id="zoom"><svg xmlns="http://www.w3.org/2000/svg" width="111" height="48" viewBox="0 0 111 48" fill="none"><g style="mix-blend-mode:luminosity" clip-path="url(#clip0_333_1363)"><path fill-rule="evenodd" clip-rule="evenodd" d="M89.934 20.597c.422.646.56 1.38.606 2.206l.06 1.1v7.698l.06 1.102c.123 1.799 1.62 3.13 3.666 3.243l1.237.054V23.904l.061-1.1c.051-.817.188-1.566.617-2.216a4.7 4.7 0 0 1 1.818-1.605 5.46 5.46 0 0 1 2.48-.584 5.46 5.46 0 0 1 2.478.592 4.7 4.7 0 0 1 1.812 1.61c.422.646.554 1.395.604 2.202l.062 1.098v7.7l.061 1.102c.128 1.808 1.613 3.139 3.666 3.243l1.236.054V22.803c0-2.333-1.045-4.571-2.907-6.222-1.861-1.65-4.386-2.578-7.019-2.579a11 11 0 0 0-4.087.778 9.9 9.9 0 0 0-3.36 2.203 9.9 9.9 0 0 0-3.361-2.202 11 11 0 0 0-4.087-.78c-2.061 0-3.975.555-5.56 1.512-.966-.956-3.13-1.512-4.371-1.512V36l1.242-.054c2.077-.122 3.578-1.416 3.659-3.243l.066-1.102v-7.697l.062-1.1c.052-.831.182-1.561.606-2.211a4.73 4.73 0 0 1 1.818-1.605 5.5 5.5 0 0 1 2.478-.587c.87 0 1.726.203 2.48.588.754.386 1.38.94 1.817 1.608m-84.97 15.35L6.206 36H24.82l-.061-1.097c-.168-1.809-1.613-3.13-3.66-3.248l-1.242-.054H8.689l14.89-13.202-.06-1.096c-.097-1.827-1.604-3.147-3.661-3.248l-1.242-.05L0 14.002l.061 1.1c.163 1.792 1.63 3.141 3.66 3.245l1.243.055h11.168L1.242 31.6l.061 1.102c.123 1.813 1.6 3.126 3.66 3.243m65.87-18.726a11 11 0 0 1 2.69 3.569 9.9 9.9 0 0 1 .945 4.21 9.9 9.9 0 0 1-.945 4.209 11 11 0 0 1-2.69 3.569c-2.33 2.062-5.487 3.22-8.779 3.22s-6.45-1.158-8.778-3.22c-4.846-4.296-4.846-11.261 0-15.557a12.6 12.6 0 0 1 4.024-2.383A13.8 13.8 0 0 1 62.047 14a13.8 13.8 0 0 1 4.755.836 12.6 12.6 0 0 1 4.031 2.386m-3.513 3.115c1.396 1.238 2.18 2.917 2.18 4.668 0 1.75-.784 3.429-2.18 4.667s-3.291 1.932-5.266 1.932-3.869-.695-5.266-1.932-2.18-2.917-2.18-4.667.784-3.43 2.18-4.668 3.291-1.932 5.266-1.932 3.87.695 5.266 1.932M36 14c1.629 0 3.242.285 4.746.838a12.6 12.6 0 0 1 4.024 2.384c4.848 4.295 4.848 11.261 0 15.556-2.329 2.062-5.486 3.22-8.778 3.22s-6.45-1.158-8.778-3.22c-4.847-4.296-4.847-11.261 0-15.557a12.6 12.6 0 0 1 4.024-2.383A13.8 13.8 0 0 1 35.984 14zm5.258 6.334c1.396 1.238 2.18 2.917 2.18 4.668 0 1.75-.784 3.43-2.18 4.668s-3.291 1.932-5.266 1.932-3.87-.695-5.266-1.932c-1.396-1.239-2.18-2.917-2.18-4.668 0-1.75.784-3.429 2.18-4.667s3.291-1.932 5.266-1.932 3.869.695 5.266 1.932z" fill="#2d8cff"/></g><defs><clipPath id="clip0_333_1363"><rect width="110.573" height="48" fill="#fff"/></clipPath></defs></svg></symbol><symbol id="arrow"><svg xmlns="http://www.w3.org/2000/svg" width="41" height="41" viewBox="0 0 41 41" fill="none"><circle cx="20.5" cy="20.5" r="20.5" fill="#191a23"/><path d="M11.25 24.701a1.5 1.5 0 1 0 1.5 2.598zm19.52-8.313a1.5 1.5 0 0 0-1.061-1.837l-13.04-3.494a1.5 1.5 0 1 0-.777 2.898l11.591 3.106-3.105 11.59a1.5 1.5 0 1 0 2.897.777zM12.75 27.3l17.32-10-1.5-2.598-17.32 10z" fill="#b9ff66"/></svg></symbol><symbol id="arrow2"><svg xmlns="http://www.w3.org/2000/svg" width="41" height="41" viewBox="0 0 41 41" fill="none"><circle cx="20.5" cy="20.5" r="20.5" fill="#fff"/><path d="M11.25 24.701a1.5 1.5 0 1 0 1.5 2.598zm19.52-8.313a1.5 1.5 0 0 0-1.061-1.837l-13.04-3.494a1.5 1.5 0 1 0-.777 2.898l11.591 3.106-3.105 11.59a1.5 1.5 0 1 0 2.897.777zM12.75 27.3l17.32-10-1.5-2.598-17.32 10z" fill="#000"/></svg></symbol><symbol id="caseArrow"><svg xmlns="http://www.w3.org/2000/svg" width="21" height="20" viewBox="0 0 21 20" fill="none"><path d="M.75 13.696a1.5 1.5 0 1 0 1.5 2.598l-.75-1.3zm19.52-8.313a1.5 1.5 0 0 0-1.061-1.837L6.169.052a1.5 1.5 0 1 0-.777 2.897l11.591 3.106-3.105 11.591a1.5 1.5 0 1 0 2.897.777zM1.5 14.995l.75 1.299 17.32-10-.75-1.3-.75-1.298-17.32 10z" fill="#b9ff66"/></svg></symbol><symbol id="linkedin"><svg xmlns="http://www.w3.org/2000/svg" width="34" height="34" viewBox="0 0 34 34" fill="none"><circle cx="17" cy="17" r="17" fill="#000"/><path d="M9.318 25h3.495V13.684H9.318z" fill="#b9ff66"/><path d="M9 10.072c0 1.116.9 2.019 2.065 2.019a2.015 2.015 0 0 0 2.013-2.02c0-1.115-.9-2.071-2.013-2.071A2.07 2.07 0 0 0 9 10.072" fill="#b9ff66"/><path d="M22.452 25H26v-6.216c0-3.028-.689-5.418-4.237-5.418-1.695 0-2.86.956-3.336 1.859h-.053v-1.54h-3.337V25h3.496v-5.578c0-1.488.264-2.922 2.118-2.922 1.8 0 1.8 1.7 1.8 2.975z" fill="#b9ff66"/></svg></symbol><symbol id="footerLogo"><svg xmlns="http://www.w3.org/2000/svg" width="36" height="36" viewBox="0 0 36 36" fill="none"><g clip-path="url(#clip0_1907_34)"><path d="m17.999 5.535 17.6-5.186L30.465 18 35.6 35.601l-17.601-5.135L.348 35.6l5.185-17.6L.348.348z" fill="#fff"/></g><defs><clipPath id="clip0_1907_34"><rect width="36" height="36" fill="#fff"/></clipPath></defs></svg></symbol><symbol id="social1"><svg xmlns="http://www.w3.org/2000/svg" width="30" height="30" viewBox="0 0 30 30" fill="none"><circle cx="15" cy="15" r="15" fill="#fff"/><path d="M8.222 22.059h3.084v-9.985H8.222z" fill="#000"/><path d="M7.941 8.887c0 .984.795 1.781 1.823 1.781.981 0 1.776-.797 1.776-1.781 0-.985-.795-1.828-1.776-1.828A1.83 1.83 0 0 0 7.94 8.887" fill="#000"/><path d="M19.81 22.059h3.131v-5.485c0-2.672-.607-4.781-3.738-4.781-1.495 0-2.523.844-2.944 1.64h-.047v-1.359H13.27v9.985h3.084v-4.922c0-1.313.233-2.578 1.869-2.578 1.589 0 1.589 1.5 1.589 2.625z" fill="#000"/></svg></symbol><symbol id="social2"><svg xmlns="http://www.w3.org/2000/svg" width="30" height="30" viewBox="0 0 30 30" fill="none"><path d="M30 15.091C30 6.755 23.286 0 15 0S0 6.755 0 15.091C0 22.637 5.444 28.905 12.641 30V19.473h-3.81V15.09h3.81v-3.286c0-3.773 2.238-5.902 5.625-5.902 1.694 0 3.387.304 3.387.304v3.712h-1.875c-1.875 0-2.48 1.156-2.48 2.373v2.8h4.174l-.666 4.38h-3.508V30C24.496 28.905 30 22.637 30 15.091" fill="#fff"/></svg></symbol><symbol id="social3"><svg xmlns="http://www.w3.org/2000/svg" width="30" height="30" viewBox="0 0 30 30" fill="none"><circle cx="15" cy="15" r="15" fill="#fff"/><path d="M21.996 11.492a7.7 7.7 0 0 0 1.792-1.862 6.8 6.8 0 0 1-2.068.552 3.54 3.54 0 0 0 1.586-2 7.6 7.6 0 0 1-2.275.897 3.62 3.62 0 0 0-2.654-1.138c-1.999 0-3.619 1.62-3.619 3.62q0 .412.103.827a10.5 10.5 0 0 1-7.479-3.792 3.5 3.5 0 0 0-.482 1.827c0 1.24.62 2.344 1.62 2.999-.586-.035-1.172-.173-1.655-.448v.034a3.62 3.62 0 0 0 2.895 3.55c-.275.07-.62.138-.93.138-.242 0-.448-.035-.69-.069a3.6 3.6 0 0 0 3.378 2.516 7.28 7.28 0 0 1-4.48 1.551c-.31 0-.586-.034-.862-.069 1.585 1.034 3.48 1.62 5.549 1.62 6.652 0 10.271-5.48 10.271-10.271z" fill="#000"/></svg></symbol><symbol id="arrowNext"><svg xmlns="http://www.w3.org/2000/svg" width="23" height="23" viewBox="0 0 23 23" fill="none"><path d="M1.5 9.546a1.5 1.5 0 0 0 0 3zm21.06 2.56a1.5 1.5 0 0 0 0-2.12L13.016.438a1.5 1.5 0 1 0-2.122 2.122l8.486 8.485-8.486 8.485a1.5 1.5 0 1 0 2.122 2.122zm-21.06.44h20v-3h-20z" fill="#fff"/></svg></symbol><symbol id="arrowPrev"><svg xmlns="http://www.w3.org/2000/svg" width="23" height="23" viewBox="0 0 23 23" fill="none"><path d="M21.507 9.592a1.5 1.5 0 1 1-.014 3l.007-1.5zM.435 12.06a1.5 1.5 0 0 1 .01-2.12L10.031.434a1.5 1.5 0 0 1 2.112 2.13L3.62 11.015l8.449 8.522a1.5 1.5 0 0 1-2.13 2.112zm21.065-.968-.007 1.5-20-.088.007-1.5.007-1.5 20 .088z" fill="#fff"/></svg></symbol></svg>